<?xml version="1.0" encoding="iso-8859-1"?>
<!-- Generator: Adobe Illustrator 19.0.0, SVG Export Plug-In . SVG Version: 6.00 Build 0)  -->
<svg version="1.1" id="Capa_1" xmlns="http://www.w3.org/2000/svg" xmlns:xlink="http://www.w3.org/1999/xlink" x="0px" y="0px"
	 viewBox="0 0 371.238 371.238" style="enable-background:new 0 0 371.238 371.238;" xml:space="preserve">
<polygon style="fill:#7FD0FF;" points="44.819,203.219 44.819,61.219 136.819,61.219 136.819,203.219 136.819,203.219 
	173.619,203.219 90.819,310.019 8.019,203.619 44.819,203.619 "/>
<polygon style="fill:#FFD92E;" points="326.419,168.019 326.419,310.019 234.419,310.019 234.419,168.019 234.419,168.019 
	197.619,168.019 280.419,61.219 363.219,167.619 326.419,167.619 "/>
<polygon style="fill:#C0EAFF;" points="36.419,203.619 73.619,203.619 73.619,203.219 73.619,61.219 44.819,61.219 44.819,203.219 
	44.819,203.619 8.019,203.619 90.819,310.019 105.219,291.619 "/>
<g>
	<polygon style="fill:#FFE780;" points="263.219,160.019 234.419,160.019 234.419,160.019 234.419,310.019 263.219,310.019 	"/>
	<polygon style="fill:#FFE780;" points="294.419,79.619 280.419,61.219 197.619,168.019 226.419,168.019 	"/>
</g>
<g>
	<path style="fill:#331800;" d="M173.619,195.219L173.619,195.219h-28.8v-134c0-4.4-3.6-8-8-8h-92c-4.4,0-8,3.6-8,8v134.4h-28.8
		c-3.2,0-6,1.6-7.2,4.4s-1.2,6,0.8,8.4l83.2,106.4c1.6,2,4,3.2,6.4,3.2l0,0c2.4,0,4.8-1.2,6.4-3.2l82.8-106.8c2-2.4,2.4-5.6,0.8-8.4
		C179.619,196.819,176.819,195.219,173.619,195.219z M90.819,296.819l-66.4-85.2h20.4c4.4,0,8-3.6,8-8l0,0l0,0v-134.4h76v134
		c0,2,0.8,4,2.4,5.6c1.6,1.6,3.6,2.4,5.6,2.4l0,0h20.4L90.819,296.819z"/>
	<path style="fill:#331800;" d="M286.419,56.419c-1.6-2-4-3.2-6.4-3.2l0,0c-2.4,0-4.8,1.2-6.4,3.2l-82.4,106.8
		c-2,2.4-2.4,5.6-0.8,8.4c1.2,2.8,4,4.4,7.2,4.4l0,0h28.8v134c0,4.4,3.6,8,8,8h92c4.4,0,8-3.6,8-8v-134.4h28.8c3.2,0,6-1.6,7.2-4.4
		c1.2-2.8,1.2-6-0.8-8.4L286.419,56.419z M326.419,159.619c-4.4,0-8,3.6-8,8l0,0l0,0v134h-76v-133.6c0-2-0.8-4-2.4-5.6
		s-3.6-2.4-5.6-2.4l0,0h-20.4l66.4-85.6l66.4,85.2L326.419,159.619z"/>
</g>
<g>
</g>
<g>
</g>
<g>
</g>
<g>
</g>
<g>
</g>
<g>
</g>
<g>
</g>
<g>
</g>
<g>
</g>
<g>
</g>
<g>
</g>
<g>
</g>
<g>
</g>
<g>
</g>
<g>
</g>
</svg>
